<svg xmlns="http://www.w3.org/2000/svg" xmlns:xlink="http://www.w3.org/1999/xlink" xml:space="preserve" version="1.1" style="shape-rendering: geometricPrecision; text-rendering: geometricPrecision; image-rendering: optimizeQuality" viewBox="0 0 362 376.25" x="0px" y="0px" fill-rule="evenodd" clip-rule="evenodd"><defs><style type="text/css">
   
    .fil1 {fill:#ffffff}
    .fil2 {fill:#ffffff}
    .fil0 {fill:#ffffff}
   
  </style></defs><g transform="matrix(1,0,0,1,0,0)"><path class="fil0" d="M 115 38 c -13 0 -26 3 -37 8 l 16 41 c -7 0 -14 3 -20 7 l -14 -37 c -21 17 -34 42 -34 70 c 0 49 40 89 89 89 c 15 0 29 -3 41 -9 c -7 -4 -13 -7 -19 -11 c -12 -10 -22 -22 -30 -37 c -3 1 -6 1 -9 1 c -18 0 -32 -15 -32 -33 c 0 -17 14 -32 32 -32 c 18 0 33 15 33 32 c 0 12 -7 23 -16 28 c 7 14 16 25 27 34 c 7 5 14 9 22 12 c 12 -7 21 -17 28 -29 c -20 -5 -31 -19 -34 -34 l 46 0 c 0 -4 0 -7 0 -11 c 0 -49 -39 -89 -89 -89 z"/><path class="fil1" d="M 295 80 c 39 0 70 31 70 70 c 0 39 -31 71 -70 71 l -1 0 l 0 0 c -6 0 -11 -1 -17 -2 l -1 0 l -1 -1 l -1 0 l 0 0 c -1 0 -1 -1 -2 -1 l 0 0 l 0 0 l -1 0 c -30 -10 -56 -40 -76 -68 l 29 0 c 1 -39 32 -69 71 -69 z m 31 64 c -4 0 -7 3 -7 7 c 0 4 3 7 7 7 c 4 0 8 -3 8 -7 c 0 -4 -4 -7 -8 -7 z m -29 0 c -4 0 -8 3 -8 7 c 0 4 4 7 8 7 c 4 0 7 -3 7 -7 c 0 -4 -3 -7 -7 -7 z m -30 0 c -4 0 -7 3 -7 7 c 0 4 3 7 7 7 c 4 0 7 -3 7 -7 c 0 -4 -3 -7 -7 -7 z"/><rect x="-29.3" y="48.7" class="fil0" transform="matrix(-0.6,-0.3,-0.3,0.6,199.4,174.3)" width="47.8" height="25.3" rx="13" ry="13"/><path class="fil2" d="M 115 235 c -51 0 -95 43 -112 104 l 225 0 c -18 -61 -61 -104 -113 -104 z"/></g><text x="0" y="316" fill="#000000" font-size="5px" font-weight="bold" font-family="'Helvetica Neue', Helvetica, Arial-Unicode, Arial, Sans-serif"></text><text x="0" y="321" fill="#000000" font-size="5px" font-weight="bold" font-family="'Helvetica Neue', Helvetica, Arial-Unicode, Arial, Sans-serif"></text></svg>