<?xml version="1.0" ?><svg fill="#ffffff" height="1792" viewBox="0 0 1792 1792" width="1792" xmlns="http://www.w3.org/2000/svg"><path transform="matrix(0,1,-1,0,1792,0)" d="M 571 589 q -10 -25 -34 -35 t -49 0 q -108 44 -191 127 t -127 191 q -10 25 0 49 t 35 34 q 13 5 24 5 q 42 0 60 -40 q 34 -84 98.5 -148.5 t 148.5 -98.5 q 25 -11 35 -35 t 0 -49 z m 942 -356 l 46 46 l -244 243 l 68 68 q 19 19 19 45.5 t -19 45.5 l -64 64 q 89 161 89 343 q 0 143 -55.5 273.5 t -150 225 t -225 150 t -273.5 55.5 t -273.5 -55.5 t -225 -150 t -150 -225 t -55.5 -273.5 t 55.5 -273.5 t 150 -225 t 225 -150 t 273.5 -55.5 q 182 0 343 89 l 64 -64 q 19 -19 45.5 -19 t 45.5 19 l 68 68 z m 8 -56 q -10 10 -22 10 q -13 0 -23 -10 l -91 -90 q -9 -10 -9 -23 t 9 -23 q 10 -9 23 -9 t 23 9 l 90 91 q 10 9 10 22.5 t -10 22.5 z m 230 230 q -11 9 -23 9 t -23 -9 l -90 -91 q -10 -9 -10 -22.5 t 10 -22.5 q 9 -10 22.5 -10 t 22.5 10 l 91 90 q 9 10 9 23 t -9 23 z m 41 -183 q 0 14 -9 23 t -23 9 h -96 q -14 0 -23 -9 t -9 -23 t 9 -23 t 23 -9 h 96 q 14 0 23 9 t 9 23 z m -192 -192 v 96 q 0 14 -9 23 t -23 9 t -23 -9 t -9 -23 v -96 q 0 -14 9 -23 t 23 -9 t 23 9 t 9 23 z m 151 55 l -91 90 q -10 10 -22 10 q -13 0 -23 -10 q -10 -9 -10 -22.5 t 10 -22.5 l 90 -91 q 10 -9 23 -9 t 23 9 q 9 10 9 23 t -9 23 z"/></svg>