<svg width="1994" height="1994" xmlns="http://www.w3.org/2000/svg" xmlns:xlink="http://www.w3.org/1999/xlink" xml:space="preserve" overflow="hidden"><g transform="translate(-1035 -265)"><g><path d="M1041.5 401.385C1041.5 329.099 1100.1 270.5 1172.39 270.5L2895.61 270.5C2967.9 270.5 3026.5 329.099 3026.5 401.385L3026.5 2123.61C3026.5 2195.9 2967.9 2254.5 2895.61 2254.5L1172.39 2254.5C1100.1 2254.5 1041.5 2195.9 1041.5 2123.61Z" stroke="#646CFF" stroke-width="4.58333" stroke-linecap="butt" stroke-linejoin="miter" stroke-miterlimit="8" stroke-opacity="1" fill="#646CFF" fill-rule="evenodd" fill-opacity="1"/><path d="M1265.61 406.5 1594.03 406.5C1639.38 406.5 1676.14 443.248 1676.14 488.579L1676.14 557.348 2391.86 557.348 2391.86 488.579C2391.86 443.248 2428.62 406.5 2473.97 406.5L2802.39 406.5C2847.74 406.5 2884.5 443.248 2884.5 488.579L2884.5 816.883C2884.5 862.214 2847.74 898.961 2802.39 898.961L2763.55 898.961 2763.55 1626.04 2802.39 1626.04C2847.74 1626.04 2884.5 1662.79 2884.5 1708.12L2884.5 2036.42C2884.5 2081.75 2847.74 2118.5 2802.39 2118.5L2473.97 2118.5C2428.62 2118.5 2391.86 2081.75 2391.86 2036.42L2391.86 1974.48 1676.14 1974.48 1676.14 2036.42C1676.14 2081.75 1639.38 2118.5 1594.03 2118.5L1265.61 2118.5C1220.26 2118.5 1183.5 2081.75 1183.5 2036.42L1183.5 1708.12C1183.5 1662.79 1220.26 1626.04 1265.61 1626.04L1341.52 1626.04 1341.52 898.961 1265.61 898.961C1220.26 898.961 1183.5 862.214 1183.5 816.883L1183.5 488.579C1183.5 443.248 1220.26 406.5 1265.61 406.5Z" stroke="#646CFF" stroke-width="4.58333" stroke-linecap="butt" stroke-linejoin="miter" stroke-miterlimit="8" stroke-opacity="1" fill="#FFFFFF" fill-rule="evenodd" fill-opacity="1"/><path d="M1439.5 752.427C1439.5 697.239 1484.24 652.5 1539.43 652.5L2552.57 652.5C2607.76 652.5 2652.5 697.239 2652.5 752.427L2652.5 1765.57C2652.5 1820.76 2607.76 1865.5 2552.57 1865.5L1539.43 1865.5C1484.24 1865.5 1439.5 1820.76 1439.5 1765.57Z" stroke="#646CFF" stroke-width="4.58333" stroke-linecap="butt" stroke-linejoin="miter" stroke-miterlimit="8" stroke-opacity="1" fill="#646CFF" fill-rule="evenodd" fill-opacity="1"/><rect x="1915.5" y="458.5" width="237" height="83.9999" stroke="#646CFF" stroke-width="4.58333" stroke-linecap="butt" stroke-linejoin="miter" stroke-miterlimit="8" stroke-opacity="1" fill="#FFFFFF" fill-opacity="1"/><rect x="1915.5" y="2001.5" width="237" height="83.9999" stroke="#646CFF" stroke-width="4.58333" stroke-linecap="butt" stroke-linejoin="miter" stroke-miterlimit="8" stroke-opacity="1" fill="#FFFFFF" fill-opacity="1"/><rect x="1227.5" y="1143.5" width="83.9999" height="237" stroke="#646CFF" stroke-width="4.58333" stroke-linecap="butt" stroke-linejoin="miter" stroke-miterlimit="8" stroke-opacity="1" fill="#FFFFFF" fill-opacity="1"/><rect x="2784.5" y="1143.5" width="84.0002" height="237" stroke="#646CFF" stroke-width="4.58333" stroke-linecap="butt" stroke-linejoin="miter" stroke-miterlimit="8" stroke-opacity="1" fill="#FFFFFF" fill-opacity="1"/><path d="M1494.5 745.834C1494.5 726.872 1509.87 711.5 1528.83 711.5L1666.17 711.5C1685.13 711.5 1700.5 726.872 1700.5 745.834L1700.5 883.166C1700.5 902.128 1685.13 917.5 1666.17 917.5L1528.83 917.5C1509.87 917.5 1494.5 902.128 1494.5 883.166Z" stroke="#646CFF" stroke-width="4.58333" stroke-linecap="butt" stroke-linejoin="miter" stroke-miterlimit="8" stroke-opacity="1" fill="#FFFFFF" fill-rule="evenodd" fill-opacity="1"/><path d="M1718.5 745.834C1718.5 726.872 1733.87 711.5 1752.83 711.5L1890.17 711.5C1909.13 711.5 1924.5 726.872 1924.5 745.834L1924.5 883.166C1924.5 902.129 1909.13 917.5 1890.17 917.5L1752.83 917.5C1733.87 917.5 1718.5 902.129 1718.5 883.166Z" stroke="#646CFF" stroke-width="4.58333" stroke-linecap="butt" stroke-linejoin="miter" stroke-miterlimit="8" stroke-opacity="1" fill="#FFFFFF" fill-rule="evenodd" fill-opacity="1"/><path d="M1942.5 745.834C1942.5 726.872 1957.87 711.5 1976.83 711.5L2114.17 711.5C2133.13 711.5 2148.5 726.872 2148.5 745.834L2148.5 883.166C2148.5 902.128 2133.13 917.5 2114.17 917.5L1976.83 917.5C1957.87 917.5 1942.5 902.128 1942.5 883.166Z" stroke="#646CFF" stroke-width="4.58333" stroke-linecap="butt" stroke-linejoin="miter" stroke-miterlimit="8" stroke-opacity="1" fill="#FFFFFF" fill-rule="evenodd" fill-opacity="1"/><path d="M2166.5 745.834C2166.5 726.872 2181.87 711.5 2200.83 711.5L2338.17 711.5C2357.13 711.5 2372.5 726.872 2372.5 745.834L2372.5 883.166C2372.5 902.128 2357.13 917.5 2338.17 917.5L2200.83 917.5C2181.87 917.5 2166.5 902.128 2166.5 883.166Z" stroke="#646CFF" stroke-width="4.58333" stroke-linecap="butt" stroke-linejoin="miter" stroke-miterlimit="8" stroke-opacity="1" fill="#FFFFFF" fill-rule="evenodd" fill-opacity="1"/><path d="M2390.5 745.834C2390.5 726.872 2405.87 711.5 2424.83 711.5L2562.17 711.5C2581.13 711.5 2596.5 726.872 2596.5 745.834L2596.5 883.166C2596.5 902.128 2581.13 917.5 2562.17 917.5L2424.83 917.5C2405.87 917.5 2390.5 902.128 2390.5 883.166Z" stroke="#646CFF" stroke-width="4.58333" stroke-linecap="butt" stroke-linejoin="miter" stroke-miterlimit="8" stroke-opacity="1" fill="#FFFFFF" fill-rule="evenodd" fill-opacity="1"/><path d="M1494.5 969.834C1494.5 950.872 1509.87 935.5 1528.83 935.5L1666.17 935.5C1685.13 935.5 1700.5 950.872 1700.5 969.834L1700.5 1107.17C1700.5 1126.13 1685.13 1141.5 1666.17 1141.5L1528.83 1141.5C1509.87 1141.5 1494.5 1126.13 1494.5 1107.17Z" stroke="#646CFF" stroke-width="4.58333" stroke-linecap="butt" stroke-linejoin="miter" stroke-miterlimit="8" stroke-opacity="1" fill="#FFFFFF" fill-rule="evenodd" fill-opacity="1"/><path d="M1718.5 969.834C1718.5 950.872 1733.87 935.5 1752.83 935.5L1890.17 935.5C1909.13 935.5 1924.5 950.872 1924.5 969.834L1924.5 1107.17C1924.5 1126.13 1909.13 1141.5 1890.17 1141.5L1752.83 1141.5C1733.87 1141.5 1718.5 1126.13 1718.5 1107.17Z" stroke="#646CFF" stroke-width="4.58333" stroke-linecap="butt" stroke-linejoin="miter" stroke-miterlimit="8" stroke-opacity="1" fill="#FFFFFF" fill-rule="evenodd" fill-opacity="1"/><path d="M1942.5 969.834C1942.5 950.872 1957.87 935.5 1976.83 935.5L2114.17 935.5C2133.13 935.5 2148.5 950.872 2148.5 969.834L2148.5 1107.17C2148.5 1126.13 2133.13 1141.5 2114.17 1141.5L1976.83 1141.5C1957.87 1141.5 1942.5 1126.13 1942.5 1107.17Z" stroke="#646CFF" stroke-width="4.58333" stroke-linecap="butt" stroke-linejoin="miter" stroke-miterlimit="8" stroke-opacity="1" fill="#FFFFFF" fill-rule="evenodd" fill-opacity="1"/><path d="M2166.5 969.834C2166.5 950.872 2181.87 935.5 2200.83 935.5L2338.17 935.5C2357.13 935.5 2372.5 950.872 2372.5 969.834L2372.5 1107.17C2372.5 1126.13 2357.13 1141.5 2338.17 1141.5L2200.83 1141.5C2181.87 1141.5 2166.5 1126.13 2166.5 1107.17Z" stroke="#646CFF" stroke-width="4.58333" stroke-linecap="butt" stroke-linejoin="miter" stroke-miterlimit="8" stroke-opacity="1" fill="#FFFFFF" fill-rule="evenodd" fill-opacity="1"/><path d="M2390.5 969.834C2390.5 950.872 2405.87 935.5 2424.83 935.5L2562.17 935.5C2581.13 935.5 2596.5 950.872 2596.5 969.834L2596.5 1107.17C2596.5 1126.13 2581.13 1141.5 2562.17 1141.5L2424.83 1141.5C2405.87 1141.5 2390.5 1126.13 2390.5 1107.17Z" stroke="#646CFF" stroke-width="4.58333" stroke-linecap="butt" stroke-linejoin="miter" stroke-miterlimit="8" stroke-opacity="1" fill="#FFFFFF" fill-rule="evenodd" fill-opacity="1"/><path d="M1494.5 1193.83C1494.5 1174.87 1509.87 1159.5 1528.83 1159.5L1666.17 1159.5C1685.13 1159.5 1700.5 1174.87 1700.5 1193.83L1700.5 1331.17C1700.5 1350.13 1685.13 1365.5 1666.17 1365.5L1528.83 1365.5C1509.87 1365.5 1494.5 1350.13 1494.5 1331.17Z" stroke="#646CFF" stroke-width="4.58333" stroke-linecap="butt" stroke-linejoin="miter" stroke-miterlimit="8" stroke-opacity="1" fill="#FFFFFF" fill-rule="evenodd" fill-opacity="1"/><path d="M1718.5 1193.83C1718.5 1174.87 1733.87 1159.5 1752.83 1159.5L1890.17 1159.5C1909.13 1159.5 1924.5 1174.87 1924.5 1193.83L1924.5 1331.17C1924.5 1350.13 1909.13 1365.5 1890.17 1365.5L1752.83 1365.5C1733.87 1365.5 1718.5 1350.13 1718.5 1331.17Z" stroke="#646CFF" stroke-width="4.58333" stroke-linecap="butt" stroke-linejoin="miter" stroke-miterlimit="8" stroke-opacity="1" fill="#FFFFFF" fill-rule="evenodd" fill-opacity="1"/><path d="M1942.5 1193.83C1942.5 1174.87 1957.87 1159.5 1976.83 1159.5L2114.17 1159.5C2133.13 1159.5 2148.5 1174.87 2148.5 1193.83L2148.5 1331.17C2148.5 1350.13 2133.13 1365.5 2114.17 1365.5L1976.83 1365.5C1957.87 1365.5 1942.5 1350.13 1942.5 1331.17Z" stroke="#646CFF" stroke-width="4.58333" stroke-linecap="butt" stroke-linejoin="miter" stroke-miterlimit="8" stroke-opacity="1" fill="#FFFFFF" fill-rule="evenodd" fill-opacity="1"/><path d="M2166.5 1193.83C2166.5 1174.87 2181.87 1159.5 2200.83 1159.5L2338.17 1159.5C2357.13 1159.5 2372.5 1174.87 2372.5 1193.83L2372.5 1331.17C2372.5 1350.13 2357.13 1365.5 2338.17 1365.5L2200.83 1365.5C2181.87 1365.5 2166.5 1350.13 2166.5 1331.17Z" stroke="#646CFF" stroke-width="4.58333" stroke-linecap="butt" stroke-linejoin="miter" stroke-miterlimit="8" stroke-opacity="1" fill="#FFFFFF" fill-rule="evenodd" fill-opacity="1"/><path d="M2390.5 1193.83C2390.5 1174.87 2405.87 1159.5 2424.83 1159.5L2562.17 1159.5C2581.13 1159.5 2596.5 1174.87 2596.5 1193.83L2596.5 1331.17C2596.5 1350.13 2581.13 1365.5 2562.17 1365.5L2424.83 1365.5C2405.87 1365.5 2390.5 1350.13 2390.5 1331.17Z" stroke="#646CFF" stroke-width="4.58333" stroke-linecap="butt" stroke-linejoin="miter" stroke-miterlimit="8" stroke-opacity="1" fill="#FFFFFF" fill-rule="evenodd" fill-opacity="1"/><path d="M1494.5 1417.83C1494.5 1398.87 1509.87 1383.5 1528.83 1383.5L1666.17 1383.5C1685.13 1383.5 1700.5 1398.87 1700.5 1417.83L1700.5 1555.17C1700.5 1574.13 1685.13 1589.5 1666.17 1589.5L1528.83 1589.5C1509.87 1589.5 1494.5 1574.13 1494.5 1555.17Z" stroke="#646CFF" stroke-width="4.58333" stroke-linecap="butt" stroke-linejoin="miter" stroke-miterlimit="8" stroke-opacity="1" fill="#FFFFFF" fill-rule="evenodd" fill-opacity="1"/><path d="M1718.5 1417.83C1718.5 1398.87 1733.87 1383.5 1752.83 1383.5L1890.17 1383.5C1909.13 1383.5 1924.5 1398.87 1924.5 1417.83L1924.5 1555.17C1924.5 1574.13 1909.13 1589.5 1890.17 1589.5L1752.83 1589.5C1733.87 1589.5 1718.5 1574.13 1718.5 1555.17Z" stroke="#646CFF" stroke-width="4.58333" stroke-linecap="butt" stroke-linejoin="miter" stroke-miterlimit="8" stroke-opacity="1" fill="#FFFFFF" fill-rule="evenodd" fill-opacity="1"/><path d="M1942.5 1417.83C1942.5 1398.87 1957.87 1383.5 1976.83 1383.5L2114.17 1383.5C2133.13 1383.5 2148.5 1398.87 2148.5 1417.83L2148.5 1555.17C2148.5 1574.13 2133.13 1589.5 2114.17 1589.5L1976.83 1589.5C1957.87 1589.5 1942.5 1574.13 1942.5 1555.17Z" stroke="#646CFF" stroke-width="4.58333" stroke-linecap="butt" stroke-linejoin="miter" stroke-miterlimit="8" stroke-opacity="1" fill="#FFFFFF" fill-rule="evenodd" fill-opacity="1"/><path d="M2166.5 1417.83C2166.5 1398.87 2181.87 1383.5 2200.83 1383.5L2338.17 1383.5C2357.13 1383.5 2372.5 1398.87 2372.5 1417.83L2372.5 1555.17C2372.5 1574.13 2357.13 1589.5 2338.17 1589.5L2200.83 1589.5C2181.87 1589.5 2166.5 1574.13 2166.5 1555.17Z" stroke="#646CFF" stroke-width="4.58333" stroke-linecap="butt" stroke-linejoin="miter" stroke-miterlimit="8" stroke-opacity="1" fill="#FFFFFF" fill-rule="evenodd" fill-opacity="1"/><path d="M2390.5 1417.83C2390.5 1398.87 2405.87 1383.5 2424.83 1383.5L2562.17 1383.5C2581.13 1383.5 2596.5 1398.87 2596.5 1417.83L2596.5 1555.17C2596.5 1574.13 2581.13 1589.5 2562.17 1589.5L2424.83 1589.5C2405.87 1589.5 2390.5 1574.13 2390.5 1555.17Z" stroke="#646CFF" stroke-width="4.58333" stroke-linecap="butt" stroke-linejoin="miter" stroke-miterlimit="8" stroke-opacity="1" fill="#FFFFFF" fill-rule="evenodd" fill-opacity="1"/><path d="M1494.5 1641.83C1494.5 1622.87 1509.87 1607.5 1528.83 1607.5L1666.17 1607.5C1685.13 1607.5 1700.5 1622.87 1700.5 1641.83L1700.5 1779.17C1700.5 1798.13 1685.13 1813.5 1666.17 1813.5L1528.83 1813.5C1509.87 1813.5 1494.5 1798.13 1494.5 1779.17Z" stroke="#646CFF" stroke-width="4.58333" stroke-linecap="butt" stroke-linejoin="miter" stroke-miterlimit="8" stroke-opacity="1" fill="#FFFFFF" fill-rule="evenodd" fill-opacity="1"/><path d="M1718.5 1641.83C1718.5 1622.87 1733.87 1607.5 1752.83 1607.5L1890.17 1607.5C1909.13 1607.5 1924.5 1622.87 1924.5 1641.83L1924.5 1779.17C1924.5 1798.13 1909.13 1813.5 1890.17 1813.5L1752.83 1813.5C1733.87 1813.5 1718.5 1798.13 1718.5 1779.17Z" stroke="#646CFF" stroke-width="4.58333" stroke-linecap="butt" stroke-linejoin="miter" stroke-miterlimit="8" stroke-opacity="1" fill="#FFFFFF" fill-rule="evenodd" fill-opacity="1"/><path d="M1942.5 1641.83C1942.5 1622.87 1957.87 1607.5 1976.83 1607.5L2114.17 1607.5C2133.13 1607.5 2148.5 1622.87 2148.5 1641.83L2148.5 1779.17C2148.5 1798.13 2133.13 1813.5 2114.17 1813.5L1976.83 1813.5C1957.87 1813.5 1942.5 1798.13 1942.5 1779.17Z" stroke="#646CFF" stroke-width="4.58333" stroke-linecap="butt" stroke-linejoin="miter" stroke-miterlimit="8" stroke-opacity="1" fill="#FFFFFF" fill-rule="evenodd" fill-opacity="1"/><path d="M2166.5 1641.83C2166.5 1622.87 2181.87 1607.5 2200.83 1607.5L2338.17 1607.5C2357.13 1607.5 2372.5 1622.87 2372.5 1641.83L2372.5 1779.17C2372.5 1798.13 2357.13 1813.5 2338.17 1813.5L2200.83 1813.5C2181.87 1813.5 2166.5 1798.13 2166.5 1779.17Z" stroke="#646CFF" stroke-width="4.58333" stroke-linecap="butt" stroke-linejoin="miter" stroke-miterlimit="8" stroke-opacity="1" fill="#FFFFFF" fill-rule="evenodd" fill-opacity="1"/><path d="M2390.5 1641.83C2390.5 1622.87 2405.87 1607.5 2424.83 1607.5L2562.17 1607.5C2581.13 1607.5 2596.5 1622.87 2596.5 1641.83L2596.5 1779.17C2596.5 1798.13 2581.13 1813.5 2562.17 1813.5L2424.83 1813.5C2405.87 1813.5 2390.5 1798.13 2390.5 1779.17Z" stroke="#646CFF" stroke-width="4.58333" stroke-linecap="butt" stroke-linejoin="miter" stroke-miterlimit="8" stroke-opacity="1" fill="#FFFFFF" fill-rule="evenodd" fill-opacity="1"/></g></g></svg>